Coordinates
nRows=4
nColumns=38

# SIMM Motion File Header:
name Coordinates
datacolumns 38
datarows 4
otherdata 1
range 0.75500000000000000000 0.75800000000000001000

Units are S.I. units (second, meters, Newtons, ...)
Angles are in degrees.

endheader
time	pelvis_tilt	pelvis_list	pelvis_rotation	pelvis_tx	pelvis_ty	pelvis_tz	hip_flexion_r	hip_adduction_r	hip_rotation_r	knee_angle_r	ankle_angle_r	subtalar_angle_r	mtp_angle_r	hip_flexion_l	hip_adduction_l	hip_rotation_l	knee_angle_l	ankle_angle_l	subtalar_angle_l	mtp_angle_l	lumbar_extension	lumbar_bending	lumbar_rotation	arm_flex_r	arm_add_r	arm_rot_r	elbow_flex_r	pro_sup_r	wrist_flex_r	wrist_dev_r	arm_flex_l	arm_add_l	arm_rot_l	elbow_flex_l	pro_sup_l	wrist_flex_l	wrist_dev_l
      0.75500000000000000000	     -3.35950897743468730000	     -5.97594350869079620000	     -2.71406267879476370000	      0.93490306136192192000	      1.02784096630199230000	     -0.32902109643227473000	     25.64448680059671300000	     11.97194778717931000000	      0.26823465238090471000	    -11.43395475971550600000	     -6.00829111468141710000	      0.00000000000000000000	      0.00000000000000000000	     -9.41588886473362230000	      0.62408744155063012000	     -0.87730471563779822000	    -70.47176462828152000000	    -10.35443829921753800000	      0.00000000000000000000	      0.00000000000000000000	     -3.43483313950791750000	      9.75254760938288710000	    -10.79597933211613300000	    -39.15091700349578500000	     -5.70165672603019400000	    -23.24988893699311600000	    112.06174981975920000000	     88.47760653507390300000	      0.00000000000000000000	      0.00000000000000000000	    -15.74583659434517800000	    -15.96611133727902000000	      5.70265598913837660000	    134.08849608543551000000	     95.48618164838981700000	      0.00000000000000000000	      0.00000000000000000000
      0.75600000000000001000	     -3.35487400077686090000	     -6.00810041097707440000	     -2.70250626079269020000	      0.93481594181043326000	      1.02719064680910480000	     -0.32902009158326917000	     25.59935812100610900000	     12.03300583398795200000	      0.25880544006451123000	    -11.62191775488799700000	     -5.90700109356216530000	     -0.00000000000000000065	      0.00000000000000000961	     -9.16065611775866980000	      0.54613503935034668000	     -0.90259076134265326000	    -71.09930620193540600000	    -10.13835525123043600000	     -0.00000000000000000059	     -0.00000000000000000048	     -3.45730204046671520000	      9.80551433336090560000	    -10.75679981238059200000	    -39.02750449244062700000	     -5.76112768055984150000	    -23.17575226064730700000	    112.02453253859214000000	     88.47510739878268300000	      0.00000000000000000000	      0.00000000000000000036	    -15.83599436024927300000	    -16.03213952783873400000	      5.64838525771746540000	    133.87458463390860000000	     95.51491231009674700000	     -0.00000000000000000141	      0.00000000000000000006
      0.75700000000000001000	     -3.35087201446423060000	     -6.03965183717762420000	     -2.69204208543391710000	      0.93472591227300372000	      1.02653035372204910000	     -0.32901666633788840000	     25.55732286302994900000	     12.09453897548881700000	      0.25237288171980138000	    -11.82273075698266500000	     -5.79211431950413490000	     -0.00000000000000000538	      0.00000000000000002097	     -8.90308815511016680000	      0.46832531955346374000	     -0.92799749003811616000	    -71.72504138797732800000	     -9.92244362112520580000	      0.00000000000000000034	      0.00000000000000000379	     -3.47942854955206960000	      9.85762550713910280000	    -10.71549789989370500000	    -38.90239251696766600000	     -5.82220169433471390000	    -23.10075498332636800000	    111.98649779045165000000	     88.47576044300548400000	     -0.00000000000000000020	      0.00000000000000000022	    -15.92566589148362700000	    -16.09866522510074200000	      5.59378237453088190000	    133.65909283014108000000	     95.54324901805745200000	      0.00000000000000000002	      0.00000000000000000119
      0.75800000000000001000	     -3.34738771496739580000	     -6.07063486975686570000	     -2.68276665508232840000	      0.93463278032574892000	      1.02586039321108480000	     -0.32901066157719533000	     25.51831669204287000000	     12.15665872097549600000	      0.24896198593955396000	    -12.03632259975047300000	     -5.66469642731093790000	     -0.00000000000000000534	      0.00000000000000002590	     -8.64330370982072440000	      0.39061809555864291000	     -0.95362554736088856000	    -72.34889179281221100000	     -9.70687407133505080000	      0.00000000000000000077	      0.00000000000000000724	     -3.50139186656665660000	      9.90892217267797550000	    -10.67189145849106600000	    -38.77556223324800300000	     -5.88478821463096490000	    -23.02497165785519300000	    111.94765224561812000000	     88.47948738174704900000	     -0.00000000000000000006	      0.00000000000000000030	    -16.01478442507702100000	    -16.16567279201962400000	      5.53888432994089360000	    133.44207566626343000000	     95.57125235965945400000	      0.00000000000000000016	      0.00000000000000000272
